<?xml version="1.0" encoding="iso-8859-1"?>
<!-- Generator: Adobe Illustrator 19.0.0, SVG Export Plug-In . SVG Version: 6.00 Build 0)  -->
<svg version="1.1" id="Capa_1" xmlns="http://www.w3.org/2000/svg" xmlns:xlink="http://www.w3.org/1999/xlink" x="0px" y="0px"
	 viewBox="0 0 512 512" style="enable-background:new 0 0 512 512;" xml:space="preserve">
<g>
	<g>
		<path d="M512,270.529c0-30.479-11.87-54.487-33.712-68.845c12.796-16.686,35.12-50.392,7.373-91.756
			c-26.698-39.798-61.917-40.808-81.78-37.339C397.79,31.571,362.345,0,319.667,0c-24.864,0-47.8,9.94-63.667,27.106
			C240.134,9.94,217.197,0,192.333,0c-42.679,0-78.123,31.571-84.213,72.589c-19.862-3.464-55.084-2.456-81.78,37.34
			c-27.748,41.364-5.424,75.07,7.373,91.757C11.87,216.042,0,240.051,0,270.529c0,28.675,14.237,54.993,37.711,70.714
			c-3.715,9.7-5.652,20.084-5.652,30.492c0,30.765,16.255,58.642,42.729,73.832C85.914,484.334,130.202,512,182.315,512
			c27.645,0,53.479-7.698,73.685-21.771C276.206,504.302,302.04,512,329.685,512c52.113,0,96.401-27.666,107.527-66.433
			c26.474-15.19,42.729-43.067,42.729-73.832c0-10.408-1.938-20.792-5.652-30.492C497.763,325.522,512,299.204,512,270.529z
			 M182.315,492c-44.067,0-82.382-23.746-89.125-55.236c-0.633-2.959-2.572-5.471-5.274-6.834
			c-31.421-15.845-44.787-56.845-28.569-88.128c2.538-4.895,0.634-10.921-4.255-13.47c-42.474-22.143-49.087-93.113-2.298-114.379
			c5.473-2.487,7.512-9.515,4.259-14.54c-1.279-1.975-9.917-13.135-12.207-16.529l25.31-13.927c5.444,5.517,13,8.943,21.344,8.943
			c16.546,0,30.007-13.463,30.007-30.011c0-16.548-13.461-30.01-30.006-30.011c-17.342,0-31.537,15.707-29.862,32.937L35.65,165.116
			c-4.367-12.861-3.897-27.352,7.301-44.046c15.477-23.073,43.002-35.71,70.428-26.625c6.543,2.167,13.818-2.097,13.818-9.293
			c0-35.925,29.221-65.152,65.138-65.152c21.428,0,40.913,9.431,52.94,25.419c0,0-0.013,54.152,0.007,76.455l-33.755,33.744
			l-20.33-20.324c-3.905-3.903-10.237-3.903-14.142,0.002c-3.905,3.906-3.904,10.238,0.002,14.143l20.325,20.319l-14.865,14.86
			l-21.456-21.449c-3.905-3.904-10.237-3.903-14.142,0.002c-3.905,3.906-3.904,10.238,0.002,14.143l21.451,21.444l-14.578,14.573
			l-21.456-21.449c-3.905-3.904-10.237-3.904-14.142,0.002c-3.905,3.906-3.903,10.238,0.002,14.143l21.451,21.444
			c0,0-20.916,20.909-20.964,20.957c-3.711,3.709-3.922,10.223,0,14.145l20.556,20.549l-20.336,20.33
			c-3.906,3.904-3.907,10.236-0.002,14.143c3.867,3.868,10.288,3.856,14.142,0.002l20.341-20.334l14.578,14.573l-20.336,20.33
			c-3.905,3.904-3.907,10.234-0.004,14.141c3.649,3.652,10.294,3.853,14.144,0.004l20.341-20.334l14.865,14.86l-21.462,21.455
			c-3.905,3.904-3.907,10.234-0.004,14.141c3.668,3.671,10.285,3.863,14.144,0.004l21.466-21.459l34.548,34.537
			c0.049,25.187,0.209,82.784,0.212,83.407C228.984,485.091,206.117,492,182.315,492z M81.493,147.89
			c0-5.52,4.489-10.011,10.006-10.011c5.517,0,10.007,4.491,10.007,10.011c0,5.52-4.489,10.01-10.006,10.01
			C85.983,157.9,81.493,153.409,81.493,147.89z M139.9,255.5l116.384-116.345L372.667,255.5L256.284,371.846L139.9,255.5z
			 M456.909,328.332c-4.89,2.549-6.793,8.574-4.256,13.469c16.497,31.828,3.214,72.091-28.569,88.128
			c-2.701,1.362-4.64,3.875-5.273,6.834C412.068,468.254,373.752,492,329.685,492c-23.802,0-46.668-6.909-63.563-19.082
			c0.003-0.609,0.163-57.803,0.211-82.839l34.832-34.821c0,0,21.095,21.089,21.182,21.176c3.645,3.644,10.291,3.85,14.142-0.002
			c3.905-3.906,3.903-10.238-0.002-14.143l-21.178-21.171l14.865-14.86c0,0,19.953,19.947,20.057,20.05
			c3.613,3.612,10.317,3.825,14.142-0.002c3.905-3.906,3.903-10.238-0.002-14.143l-20.052-20.046l14.578-14.573l20.057,20.051
			c3.869,3.867,10.281,3.86,14.142-0.002c3.904-3.906,3.903-10.238-0.002-14.143l-20.052-20.046c0,0,20.8-20.794,20.839-20.833
			c3.712-3.711,3.918-10.226,0-14.145l-21.248-21.241l21.167-21.16c3.906-3.904,3.907-10.236,0.002-14.143
			c-3.905-3.907-10.237-3.908-14.142-0.002l-21.172,21.165l-14.578-14.573l21.167-21.16c3.906-3.904,3.907-10.236,0.002-14.143
			c-3.905-3.905-10.237-3.907-14.142-0.002l-21.172,21.165l-14.865-14.86l20.042-20.035c3.906-3.904,3.907-10.236,0.002-14.143
			c-3.904-3.905-10.237-3.907-14.142-0.002l-20.046,20.04l-34.038-34.027c0.02-22.148,0.006-75.733,0.002-75.883
			C278.75,29.432,298.237,20,319.667,20c35.915,0,65.135,29.226,65.137,65.149c0,7.209,7.396,11.425,13.812,9.298
			c12.933-4.285,45.687-10.27,70.435,26.624c11.198,16.693,11.668,31.184,7.301,44.044l-25.989-14.3
			c0.094-0.963,0.145-1.939,0.145-2.926c0-16.548-13.461-30.011-30.006-30.011c-16.545,0-30.006,13.462-30.006,30.01
			c-0.001,25.786,33.168,39.493,51.35,21.069l25.311,13.927c-2.29,3.393-10.925,14.551-12.206,16.529
			c-3.167,4.892-1.353,11.991,4.256,14.539c21.761,9.89,32.795,28.925,32.795,56.577C492,294.899,478.554,317.048,456.909,328.332z
			 M430.506,147.889c0,5.52-4.488,10.011-10.006,10.011s-10.006-4.491-10.006-10.011s4.489-10.011,10.006-10.011
			C426.017,137.878,430.506,142.369,430.506,147.889z"/>
	</g>
</g>
<g>
	<g>
		<path d="M461.105,268.141l-27.056-27.046c-3.905-3.904-10.237-3.904-14.142,0.003c-3.905,3.905-3.903,10.237,0.002,14.142
			c0,0,26.917,26.907,27.055,27.045c3.62,3.618,10.318,3.826,14.143-0.002C465.012,278.378,465.01,272.046,461.105,268.141z"/>
	</g>
</g>
<g>
	<g>
		<path d="M360.218,395.763c-3.903-3.908-10.235-3.909-14.141-0.003l-16.154,16.148c-3.967-1.938-8.419-3.028-13.123-3.028
			c-16.545,0-30.006,13.463-30.006,30.011s13.461,30.01,30.006,30.01c16.545,0,30.006-13.462,30.006-30.01
			c0-4.552-1.024-8.868-2.845-12.737l16.255-16.249C364.122,406.001,364.123,399.669,360.218,395.763z M316.8,448.9
			c-5.518,0-10.006-4.49-10.006-10.01s4.489-10.011,10.006-10.011c5.517,0,10.006,4.491,10.006,10.011
			C326.806,444.41,322.318,448.9,316.8,448.9z"/>
	</g>
</g>
<g>
	<g>
		<path d="M428.357,358.627l9.016-28.5c1.667-5.266-1.252-10.885-6.518-12.55c-5.266-1.664-10.885,1.253-12.55,6.519l-8.372,26.464
			c-0.695-0.048-1.394-0.082-2.101-0.082c-16.546,0-30.007,13.463-30.007,30.011s13.461,30.011,30.007,30.011
			c16.545,0,30.006-13.463,30.006-30.011C437.838,371.877,434.186,364.105,428.357,358.627z M407.833,390.5
			c-5.518,0-10.007-4.491-10.007-10.011c0-5.52,4.489-10.011,10.007-10.011c5.518,0,10.006,4.491,10.006,10.011
			C417.839,386.009,413.351,390.5,407.833,390.5z"/>
	</g>
</g>
<g>
	<g>
		<path d="M373.731,109.009l-25.465-21.534c0.995-2.981,1.541-6.164,1.541-9.475c0-16.548-13.461-30.011-30.006-30.011
			c-16.545,0-30.006,13.463-30.006,30.011s13.461,30.011,30.006,30.011c5.949,0,11.494-1.748,16.164-4.746l24.852,21.016
			c1.878,1.588,4.171,2.364,6.452,2.364c2.84,0,5.663-1.204,7.641-3.543C378.477,118.885,377.949,112.575,373.731,109.009z
			 M319.802,88.011c-5.517,0-10.007-4.491-10.007-10.011s4.489-10.011,10.006-10.011c5.517,0,10.007,4.491,10.007,10.011
			S325.319,88.011,319.802,88.011z"/>
	</g>
</g>
<g>
	<g>
		<path d="M195.2,408.88c-4.703,0-9.156,1.091-13.123,3.028l-16.154-16.148c-3.905-3.904-10.237-3.904-14.142,0.003
			c-3.905,3.905-3.903,10.237,0.002,14.142l16.255,16.249c-1.821,3.869-2.845,8.185-2.845,12.737
			c0,16.548,13.461,30.01,30.006,30.01c16.546,0,30.007-13.462,30.007-30.01C225.206,422.343,211.746,408.88,195.2,408.88z
			 M195.2,448.9c-5.518,0-10.006-4.49-10.006-10.01s4.489-10.011,10.006-10.011c5.517,0,10.007,4.491,10.007,10.011
			C205.207,444.41,200.717,448.9,195.2,448.9z"/>
	</g>
</g>
<g>
	<g>
		<path d="M92.093,241.098c-3.905-3.907-10.236-3.908-14.142-0.003l-27.056,27.046c-3.906,3.904-3.907,10.236-0.002,14.142
			c3.868,3.871,10.289,3.854,14.142,0.003l27.056-27.046C95.997,251.335,95.998,245.003,92.093,241.098z"/>
	</g>
</g>
<g>
	<g>
		<path d="M104.168,350.491c-0.713-0.009-1.431,0.009-2.152,0.054c-2.499-8.859-5.538-17.651-8.321-26.449
			c-1.665-5.266-7.283-8.186-12.55-6.519c-5.266,1.665-8.184,7.284-6.518,12.55l9.016,28.5c-5.83,5.478-9.481,13.25-9.481,21.862
			c0,16.548,13.461,30.011,30.007,30.011c16.545,0,30.006-13.462,30.006-30.01C134.174,364.267,120.21,350.69,104.168,350.491z
			 M104.167,390.5c-5.518,0-10.007-4.491-10.007-10.011c0-5.52,4.489-10.011,10.007-10.011s10.006,4.491,10.006,10.011
			C114.173,386.009,109.685,390.5,104.167,390.5z"/>
	</g>
</g>
<g>
	<g>
		<path d="M192.2,47.989c-20.008-0.001-34.789,20.534-28.466,39.486l-25.465,21.534c-4.216,3.566-4.745,9.873-1.181,14.09
			c1.889,2.235,4.767,3.403,7.645,3.423c2.324,0.016,4.647-0.717,6.45-2.241l24.852-21.016c4.669,2.999,10.215,4.746,16.164,4.746
			c16.546,0,30.007-13.463,30.007-30.011C222.206,61.452,208.745,47.99,192.2,47.989z M192.199,88.011
			c-5.518,0-10.007-4.491-10.007-10.011s4.489-10.011,10.007-10.011S202.206,72.48,202.206,78S197.717,88.011,192.199,88.011z"/>
	</g>
</g>
<g>
	<g>
		<path d="M295.952,213.833h-79.337c-5.523,0-10,4.478-10,10c0,5.522,4.477,10,10,10h79.337c5.523,0,10-4.478,10-10
			C305.952,218.311,301.475,213.833,295.952,213.833z"/>
	</g>
</g>
<g>
	<g>
		<path d="M275.29,298h-38.263c-5.523,0-10,4.478-10,10c0,5.522,4.477,10,10,10h38.263c5.523,0,10-4.478,10-10
			C285.29,302.478,280.813,298,275.29,298z"/>
	</g>
</g>
<g>
	<g>
		<path d="M270.604,256.359h-70c-5.52,0-10,4.48-10,10c0,5.511,4.48,10,10,10h70c5.51,0,9.99-4.489,9.99-10
			C280.594,260.839,276.114,256.359,270.604,256.359z"/>
	</g>
</g>
<g>
	<g>
		<path d="M310.594,256.359c-5.511,0-9.99,4.481-9.99,10c0,5.511,4.48,10,9.99,10c5.52,0,10.01-4.489,10.01-10
			C320.604,260.839,316.114,256.359,310.594,256.359z"/>
	</g>
</g>
<g>
</g>
<g>
</g>
<g>
</g>
<g>
</g>
<g>
</g>
<g>
</g>
<g>
</g>
<g>
</g>
<g>
</g>
<g>
</g>
<g>
</g>
<g>
</g>
<g>
</g>
<g>
</g>
<g>
</g>
</svg>
