<?xml version="1.0" encoding="iso-8859-1"?>
<!-- Generator: Adobe Illustrator 19.0.0, SVG Export Plug-In . SVG Version: 6.00 Build 0)  -->
<svg version="1.1" id="Capa_1" xmlns="http://www.w3.org/2000/svg" xmlns:xlink="http://www.w3.org/1999/xlink" x="0px" y="0px"
	 viewBox="0 0 512 512" style="enable-background:new 0 0 512 512;" xml:space="preserve">
<g>
	<g>
		<path d="M231.621,211.831h-45c-5.523,0-10,4.479-10,10.004c0,5.525,4.477,10.004,10,10.004h45c5.523,0,10-4.479,10-10.004
			C241.621,216.31,237.144,211.831,231.621,211.831z"/>
	</g>
</g>
<g>
	<g>
		<path d="M231.621,389.49h-45c-5.523,0-10,4.479-10,10.004c0,5.525,4.477,10.004,10,10.004h45c5.523,0,10-4.479,10-10.004
			C241.621,393.97,237.144,389.49,231.621,389.49z"/>
	</g>
</g>
<g>
	<g>
		<path d="M252.621,254.205h-89c-5.523,0-10,4.479-10,10.004c0,5.525,4.477,10.004,10,10.004h89c5.523,0,10-4.479,10-10.004
			C262.621,258.684,258.144,254.205,252.621,254.205z"/>
	</g>
</g>
<g>
	<g>
		<path d="M51.3,274.214c-5.52,0-10,4.492-10,10.004c0,5.513,4.48,10.004,10,10.004c5.51,0,10-4.491,10-10.004
			C61.3,278.706,56.81,274.214,51.3,274.214z"/>
	</g>
</g>
<g>
	<g>
		<path d="M54.56,441.019c-5.52,0-10,4.482-10,10.004c0,5.512,4.48,10.004,10,10.004c5.51,0,10-4.492,10-10.004
			C64.56,445.501,60.07,441.019,54.56,441.019z"/>
	</g>
</g>
<g>
	<g>
		<path d="M51.3,314.23c-5.52,0-10,4.482-10,10.004v90.035c0,5.513,4.48,10.004,10,10.004c5.51-0.001,10-4.492,10-10.004v-90.035
			C61.3,318.712,56.81,314.23,51.3,314.23z"/>
	</g>
</g>
<g>
	<g>
		<path d="M460.7,377.135c-5.51,0-10,4.491-10,10.014v53.87h-16.14c-5.52,0-10,4.482-10,10.004c0,5.512,4.48,10.004,10,10.004
			c0,0,26.036,0,26.139,0c5.213,0,10-4.498,10-10.004v-63.874C470.7,381.626,466.22,377.135,460.7,377.135z"/>
	</g>
</g>
<g>
	<g>
		<path d="M460.7,337.13c-5.51,0-10,4.481-10,9.994c0,5.522,4.49,10.004,10,10.004c5.52,0,10-4.482,10-10.004
			C470.7,341.611,466.22,337.13,460.7,337.13z"/>
	</g>
</g>
<g>
	<g>
		<path d="M482.868,87.623c-17.437-14.221-41.502-22.052-67.762-22.052c-2.165,0-4.343,0.073-6.526,0.218
			c-5.709-17.365-16.559-32.959-31.159-44.574C360.225,7.534,338.521,0,316.31,0c-23.505,0-45.577,8.054-63.123,22.86
			C235.64,8.054,213.568,0,190.063,0c-24.099,0-47.198,8.702-65.042,24.503c-14.654,12.976-24.792,29.84-29.266,48.375
			c-6.098-1.499-12.373-2.255-18.76-2.255c-20.433,0-39.844,8.681-54.659,24.444C8.142,110.171,0,130.287,0,150.257
			c0,36.136,14.232,64.686,41.3,83.209v10.737c0,5.513,4.48,10.004,10,10.004c5.469,0,9.928-4.426,9.994-9.882
			c16.709,7.089,32.902,9.734,42.952,10.72v185.974H94.56c-5.52,0-10,4.482-10,10.004c0,5.512,4.48,10.004,10,10.004l152.094-0.313
			c0,0,0,41.418,0,41.479c0,19.714,29.013,2.899,37.859,1.455c8.348,2.716,37.858,18.184,37.858-1.455v-41.479h75.383
			c5.523,0,10-4.479,10-10.004V256.942c2.918,0.006,5.385,0.009,7.352,0.009c12.269,0,24.299-2.818,35.594-8.19v58.357
			c0,5.512,4.49,9.994,10,9.994c5.52,0,10-4.482,10-9.994v-71.206c4.72-3.912,9.216-8.336,13.438-13.256
			C501.844,202.02,512,175.631,512,150.257C512,124.824,501.926,103.166,482.868,87.623z M302.37,488.419
			c-7.312-2.38-13.871-6.348-21.742-4.561c-1.337,0.304-13.974,3.916-13.974,4.561c0-0.006,0-27.705,0-27.705h35.717L302.37,488.419
			z M303.736,440.706h-179.49V160.261h179.49V440.706z M345.754,440.706h-22.018V160.261h22.018V440.706z M387.754,246.911v193.795
			h-22V160.261h22V246.911z M415.105,236.944c-1.965,0-4.433-0.003-7.352-0.01c0,0,0-86.677,0-86.678
			c0-5.525-4.477-10.004-10-10.004H114.246c-5.523,0-10,4.479-10,10.005v84.688C79.848,232.224,20,218.583,20,150.257
			c0-31.763,26.633-59.626,56.996-59.626c7.889,0,15.537,1.542,22.732,4.583c5.896,2.492,13.14-1.497,13.84-8.173
			c3.997-38.216,36.883-67.033,76.496-67.034c33.215,0,61.332,22.789,75.558,51.822c3.564,7.101,2.272,20.145,13.389,20.145
			c0.12,0,0.24,0,0.359,0c16.246,0,7.311-22.792,3.601-30.161c-3.773-7.354-9.081-15.288-16.175-24.228
			c13.831-11.383,31.108-17.578,49.515-17.578c35.955,0,67.556,24.742,75.141,58.83c1.146,5.151,6.097,8.529,11.307,7.71
			c4.112-0.644,8.267-0.97,12.348-0.97c38.274,0,76.895,19.999,76.895,64.679C492,190.345,458.411,236.944,415.105,236.944z"/>
	</g>
</g>
<g>
</g>
<g>
</g>
<g>
</g>
<g>
</g>
<g>
</g>
<g>
</g>
<g>
</g>
<g>
</g>
<g>
</g>
<g>
</g>
<g>
</g>
<g>
</g>
<g>
</g>
<g>
</g>
<g>
</g>
</svg>
