<?xml version="1.0" encoding="iso-8859-1"?>
<!-- Generator: Adobe Illustrator 19.0.0, SVG Export Plug-In . SVG Version: 6.00 Build 0)  -->
<svg version="1.1" id="Capa_1" xmlns="http://www.w3.org/2000/svg" xmlns:xlink="http://www.w3.org/1999/xlink" x="0px" y="0px"
	 viewBox="0 0 511.999 511.999" style="enable-background:new 0 0 511.999 511.999;" xml:space="preserve">
<g>
	<g>
		<path d="M168.808,154.68c-3.902-3.903-10.23-3.902-14.133,0l-21.199,21.199c-3.901,3.901-3.902,10.223-0.005,14.127
			c1.855,1.859,4.465,2.794,7.073,2.797c2.606,0.003,5.212-0.924,7.065-2.791l21.199-21.199
			C172.711,164.91,172.71,158.583,168.808,154.68z"/>
	</g>
</g>
<g>
	<g>
		<path d="M121.673,201.812c-3.898-3.896-10.234-3.896-14.131,0.001c-3.907,3.907-3.907,10.232-0.001,14.129
			c3.653,3.645,10.223,3.929,14.132,0.001C125.581,212.046,125.581,205.72,121.673,201.812z"/>
	</g>
</g>
<g>
	<g>
		<path d="M81.603,256.016l14.133-14.133c3.904-3.902,3.904-10.229,0.001-14.132c-3.903-3.903-10.23-3.902-14.133,0L60.405,248.95
			c-3.902,3.903-3.902,10.23,0,14.133c0,0,21.098,21.098,21.198,21.198c3.615,3.615,10.245,3.888,14.133,0
			c3.902-3.903,3.902-10.23,0-14.133L81.603,256.016z"/>
	</g>
</g>
<g>
	<g>
		<path d="M121.673,296.088c-3.898-3.906-10.234-3.906-14.131,0.001c-3.907,3.897-3.907,10.222-0.001,14.129
			c3.636,3.637,10.269,3.864,14.132,0.001C125.581,306.312,125.581,299.986,121.673,296.088z"/>
	</g>
</g>
<g>
	<g>
		<path d="M168.808,343.219l-21.198-21.198c-3.903-3.903-10.23-3.903-14.133,0c-3.902,3.903-3.902,10.23,0,14.133
			c0,0,21.09,21.09,21.198,21.198c3.64,3.64,10.205,3.929,14.133,0C172.71,353.449,172.71,347.122,168.808,343.219z"/>
	</g>
</g>
<g>
	<g>
		<path d="M378.546,322.021c-3.903-3.903-10.23-3.903-14.133,0l-21.199,21.199c-3.902,3.902-3.902,10.229-0.002,14.131
			c3.668,3.67,10.274,3.862,14.135,0.002l21.199-21.199C382.448,332.251,382.448,325.924,378.546,322.021z"/>
	</g>
</g>
<g>
	<g>
		<path d="M404.481,296.089c-3.897-3.907-10.233-3.907-14.131,0c-3.905,3.896-3.907,10.217-0.006,14.125
			c1.815,1.818,4.444,2.728,7.073,2.728c2.624,0,5.249-0.907,7.064-2.722C408.389,306.313,408.389,299.987,404.481,296.089z"/>
	</g>
</g>
<g>
	<g>
		<path d="M451.617,248.95l-21.199-21.199c-3.903-3.903-10.23-3.902-14.133,0c-3.903,3.903-3.903,10.23,0,14.133l14.133,14.133
			l-14.133,14.132c-3.901,3.902-3.902,10.228-0.003,14.13c3.666,3.669,10.276,3.862,14.136,0.003l21.199-21.199
			C455.52,259.18,455.52,252.853,451.617,248.95z"/>
	</g>
</g>
<g>
	<g>
		<path d="M404.481,201.813c-3.897-3.897-10.233-3.897-14.131,0c-3.907,3.908-3.907,10.233,0,14.131
			c1.924,1.933,4.495,2.896,7.066,2.896c2.574-0.001,5.146-0.968,7.065-2.896C408.389,212.047,408.389,205.721,404.481,201.813z"/>
	</g>
</g>
<g>
	<g>
		<path d="M378.545,175.879l-21.199-21.199c-3.903-3.903-10.23-3.902-14.133,0c-3.903,3.903-3.903,10.23,0,14.133l21.2,21.199
			c3.862,3.862,10.287,3.846,14.132,0C382.448,186.109,382.448,179.782,378.545,175.879z"/>
	</g>
</g>
<g>
	<g>
		<path d="M236.844,256.985L180.8,200.941c-3.903-3.903-10.23-3.903-14.133,0c-3.902,3.903-3.902,10.23,0,14.133
			c0,0,56.012,56.012,56.044,56.044c3.719,3.719,10.196,3.937,14.133,0C240.746,267.215,240.746,260.888,236.844,256.985z"/>
	</g>
</g>
<g>
	<g>
		<path d="M208.781,287.258l-56.044-56.044c-3.903-3.903-10.23-3.903-14.133,0c-3.902,3.903-3.902,10.23,0,14.133
			c0,0,55.941,55.941,56.043,56.043c3.677,3.677,10.201,3.932,14.133,0C212.683,297.488,212.683,291.16,208.781,287.258z"/>
	</g>
</g>
<g>
	<g>
		<path d="M313.543,169.503l-50.466-50.466c-3.902-3.902-10.23-3.902-14.132,0.001l-50.466,50.466
			c-3.902,3.903-3.902,10.23,0,14.133c0,0,50.289,50.289,50.465,50.465c3.646,3.646,10.241,3.893,14.133,0l50.466-50.466
			C317.445,179.733,317.445,173.406,313.543,169.503z M256.011,212.904l-36.333-36.333l36.333-36.333l36.333,36.333L256.011,212.904
			z"/>
	</g>
</g>
<g>
	<g>
		<path d="M511.973,255.229c-0.193-2.369-1.529-4.395-3.134-6.216c-0.627-0.711-39.743-39.875-58.64-58.788
			c15.358-15.261,30.717-30.523,46.075-45.784c5.863-5.826,11.663-16.03,5.191-21.171c-5.59-4.44-13.493,0.881-18.534,5.936
			c-15.607,15.649-31.215,31.297-46.822,46.946c-4.813-4.814-9.626-9.628-14.44-14.442c15.362-15.265,30.725-30.529,46.087-45.794
			c5.86-5.823,11.656-16.023,5.185-21.159c-5.585-4.432-13.476,0.881-18.512,5.928c-15.615,15.648-31.23,31.296-46.844,46.944
			c-4.812-4.813-9.624-9.626-14.437-14.439c15.362-15.265,30.725-30.529,46.087-45.794c5.86-5.823,11.656-16.023,5.185-21.159
			c-5.585-4.432-13.476,0.881-18.512,5.928c-15.615,15.648-31.23,31.296-46.844,46.944c-4.812-4.813-9.625-9.626-14.437-14.439
			c15.362-15.265,30.725-30.53,46.087-45.794c5.86-5.823,11.656-16.023,5.185-21.158c-5.585-4.432-13.476,0.881-18.512,5.928
			c-15.615,15.648-31.229,31.296-46.844,46.944c-4.812-4.813-9.625-9.626-14.437-14.44c15.362-15.264,30.724-30.528,46.086-45.792
			c5.859-5.822,11.655-16.018,5.186-21.155c-5.584-4.434-13.478,0.879-18.515,5.927c-15.611,15.643-31.223,31.287-46.834,46.93
			c-18.999-18.982-37.997-37.963-56.996-56.945c-2.345-2.343-4.984-4.827-8.288-5.089c-4.045-0.32-7.468,2.766-10.338,5.635
			c-18.584,18.58-37.167,37.161-55.751,55.741c-15.037-15.133-30.074-30.265-45.112-45.398c-5.821-5.858-16.008-11.654-21.152-5.194
			c-4.449,5.588,0.874,13.499,5.93,18.543c15.418,15.379,30.835,30.757,46.253,46.136c-4.813,4.812-9.627,9.625-14.44,14.437
			c-15.04-15.134-30.08-30.268-45.119-45.403c-5.821-5.857-16.015-11.65-21.149-5.183c-4.432,5.583,0.88,13.472,5.925,18.507
			c15.42,15.388,30.84,30.776,46.26,46.164c-4.813,4.812-9.625,9.623-14.438,14.435c-15.04-15.134-30.08-30.268-45.119-45.403
			c-5.821-5.857-16.015-11.65-21.149-5.183c-4.432,5.583,0.88,13.472,5.925,18.507c15.42,15.388,30.84,30.776,46.26,46.164
			c-4.813,4.812-9.625,9.623-14.438,14.435c-15.039-15.134-30.079-30.268-45.118-45.402c-5.821-5.858-16.017-11.651-21.15-5.183
			c-4.431,5.583,0.88,13.472,5.926,18.506c15.42,15.388,30.84,30.776,46.26,46.164c-4.813,4.812-9.625,9.623-14.438,14.435
			c-15.039-15.134-30.078-30.267-45.117-45.401c-5.82-5.856-16.012-11.649-21.146-5.184c-4.434,5.582,0.878,13.474,5.924,18.51
			c15.417,15.385,30.833,30.77,46.25,46.155C43.356,208.705,24.228,227.844,5.1,246.983c-2.33,2.332-4.801,4.952-5.075,8.238
			c-0.339,4.065,2.763,7.513,5.647,10.399c18.794,18.805,37.587,37.611,56.381,56.416c-15.275,15.238-30.551,30.476-45.826,45.714
			c-5.022,5.01-10.318,12.831-5.953,18.423c5.11,6.546,15.401,0.737,21.253-5.154c14.871-14.969,29.742-29.937,44.613-44.906
			c4.813,4.813,9.627,9.625,14.44,14.438c-15.279,15.242-30.558,30.485-45.837,45.727c-5.022,5.01-10.316,12.835-5.945,18.422
			c5.109,6.53,15.379,0.729,21.224-5.151c14.881-14.971,29.761-29.942,44.642-44.913c4.813,4.812,9.625,9.624,14.438,14.436
			c-15.28,15.242-30.56,30.485-45.84,45.727c-5.015,5.002-10.303,12.808-5.95,18.395c5.101,6.548,15.392,0.746,21.244-5.141
			c14.877-14.965,29.753-29.93,44.63-44.896c4.812,4.812,9.625,9.623,14.437,14.435c-15.28,15.242-30.561,30.484-45.841,45.727
			c-5.009,4.996-10.293,12.785-5.954,18.374c5.095,6.562,15.403,0.759,21.26-5.132c14.873-14.961,29.747-29.921,44.62-44.882
			c4.82,4.82,9.64,9.641,14.46,14.461c-14.997,14.896-29.993,29.793-44.99,44.689c-5.819,5.78-11.599,15.849-5.236,21.024
			c5.574,4.533,13.572-0.807,18.649-5.892c15.219-15.244,30.438-30.487,45.657-45.731c18.702,18.688,37.403,37.376,56.105,56.064
			c2.899,2.897,6.362,6.014,10.446,5.677c3.31-0.273,5.951-2.762,8.3-5.109c19.128-19.114,38.256-38.228,57.384-57.343
			c15.099,15.189,30.198,30.379,45.297,45.568c5.855,5.89,16.15,11.697,21.258,5.149c4.364-5.594-0.935-13.414-5.959-18.423
			c-15.507-15.461-31.015-30.922-46.522-46.383c4.813-4.813,9.627-9.626,14.44-14.439c15.109,15.197,30.218,30.395,45.328,45.592
			c5.846,5.88,16.122,11.679,21.225,5.143c4.362-5.586-0.928-13.4-5.945-18.405c-15.508-15.472-31.016-30.944-46.524-46.416
			c4.812-4.811,9.623-9.622,14.435-14.433c15.1,15.185,30.201,30.37,45.301,45.555c5.861,5.894,16.183,11.695,21.27,5.121
			c4.322-5.587-0.955-13.358-5.956-18.346c-15.51-15.472-31.02-30.944-46.53-46.416c4.779-4.777,9.557-9.555,14.336-14.332
			c12.913,12.785,25.826,25.57,38.74,38.356c4.604,4.558,8.267,10.867,14.151,13.95c6.27,3.285,15.71,0.742,15.015-7.958
			c-0.445-5.564-4.662-9.988-8.635-13.909c-15.047-14.851-30.095-29.703-45.142-44.554c4.823-4.829,9.646-9.658,14.468-14.487
			c15.471,15.503,30.942,31.007,46.413,46.51c5.035,5.045,12.924,10.357,18.507,5.926c6.47-5.134,0.676-15.331-5.182-21.153
			c-15.215-15.121-30.431-30.242-45.646-45.363c18.561-18.572,37.122-37.144,55.684-55.717
			C509.201,262.762,512.313,259.305,511.973,255.229z M256.011,487.718L24.31,256.017L256.011,24.315l231.701,231.701
			L256.011,487.718z"/>
	</g>
</g>
<g>
	<g>
		<path d="M348.689,205.982c-3.855-3.856-10.301-3.851-14.132-0.001l-34.187,34.187c-3.896,3.886-3.896,10.232,0.001,14.13
			c3.714,3.714,10.214,3.916,14.131,0c0,0,34.046-34.046,34.186-34.186C352.366,216.434,352.567,209.86,348.689,205.982z"/>
	</g>
</g>
<g>
	<g>
		<path d="M257.971,296.689c-3.783-3.784-10.366-3.765-14.131-0.001l-38.864,38.864c-3.897,3.897-3.897,10.243,0,14.14
			c3.868,3.869,10.262,3.869,14.13,0.001l38.864-38.864C261.867,306.932,261.867,300.587,257.971,296.689z"/>
	</g>
</g>
<g>
	<g>
		<path d="M286.242,268.429c-3.784-3.805-10.371-3.77-14.141-0.001c-3.852,3.851-3.842,10.287-0.001,14.13
			c3.796,3.798,10.368,3.772,14.141,0.001C290.063,278.738,290.03,272.238,286.242,268.429z"/>
	</g>
</g>
<g>
	<g>
		<path d="M378.416,234.876c-3.902-3.903-10.23-3.902-14.133,0L234.288,364.872c-3.902,3.902-3.902,10.23,0.001,14.133
			c3.724,3.724,10.197,3.935,14.133,0l129.994-129.996C382.319,245.106,382.318,238.779,378.416,234.876z"/>
	</g>
</g>
<g>
	<g>
		<path d="M297.387,403.179c-3.901-3.903-10.229-3.903-14.132,0l-27.244,27.244l-27.244-27.244c-3.903-3.903-10.23-3.903-14.133,0
			c-3.902,3.903-3.902,10.23,0,14.133c0,0,34.252,34.252,34.31,34.31c3.716,3.716,10.208,3.925,14.133,0l34.31-34.31
			C301.29,413.409,301.29,407.082,297.387,403.179z"/>
	</g>
</g>
<g>
	<g>
		<path d="M297.389,94.721l-34.31-34.31c-3.904-3.903-10.232-3.903-14.134,0l-34.31,34.31c-3.902,3.903-3.902,10.23,0,14.133
			c3.903,3.902,10.23,3.902,14.133,0l27.244-27.244c0,0,27.229,27.23,27.244,27.244c3.707,3.707,10.203,3.929,14.133,0
			C301.291,104.951,301.291,98.624,297.389,94.721z"/>
	</g>
</g>
<g>
</g>
<g>
</g>
<g>
</g>
<g>
</g>
<g>
</g>
<g>
</g>
<g>
</g>
<g>
</g>
<g>
</g>
<g>
</g>
<g>
</g>
<g>
</g>
<g>
</g>
<g>
</g>
<g>
</g>
</svg>
