<?xml version="1.0" encoding="iso-8859-1"?>
<!-- Generator: Adobe Illustrator 19.0.0, SVG Export Plug-In . SVG Version: 6.00 Build 0)  -->
<svg version="1.1" id="Capa_1" xmlns="http://www.w3.org/2000/svg" xmlns:xlink="http://www.w3.org/1999/xlink" x="0px" y="0px"
	 viewBox="0 0 512 512" style="enable-background:new 0 0 512 512;" xml:space="preserve">
<g>
	<g>
		<path d="M509.985,249.977c-1.734-2.299-43.197-56.803-107.253-99.753c-49.811-33.398-99.178-50.332-146.731-50.332
			s-96.92,16.934-146.73,50.332c-64.057,42.95-105.52,97.453-107.254,99.753c-2.689,3.565-2.689,8.482,0,12.047
			c1.734,2.299,43.197,56.803,107.253,99.753c49.81,33.398,99.177,50.332,146.73,50.332s96.92-16.934,146.73-50.332
			c64.057-42.95,105.519-97.454,107.253-99.753C512.673,258.458,512.673,253.542,509.985,249.977z M279.941,196.279
			c5.74,0,10.415,2.427,14.953,5.709c4.805,4.282,7.555,10.375,7.555,16.815c0.001,9.655-7.666,18.937-16.96,21.698
			c-1.802,0.535-3.666,0.826-5.547,0.826c-11.964,0-22.508-10.451-22.508-22.524C257.434,206.383,267.53,196.279,279.941,196.279z
			 M277.879,261.277c-0.011,0.047-0.021,0.094-0.033,0.141c-2.48,9.922-11.622,17.106-21.846,17.106
			c-12.411,0-22.508-10.104-22.508-22.524c0-6.677,3.342-13.595,8.61-17.733c0.009-0.007,0.019-0.014,0.029-0.021
			C248.936,251.539,262.426,260.539,277.879,261.277z M85.761,319.12C54.569,293.103,32.132,267.35,22.788,256
			c9.347-11.354,31.784-37.105,62.973-63.12c-7.423,20.032-11.258,41.335-11.258,63.12C74.503,277.785,78.338,299.088,85.761,319.12
			z M246.009,391.833c-39.99-2.195-81.65-17.51-124.018-45.608c-18-26.709-27.502-57.862-27.502-90.225
			c0-32.363,9.502-63.516,27.501-90.225c42.368-28.098,84.028-43.414,124.018-45.608v49.791c-16.392,1.894-31.395,8.4-43.701,18.168
			l-22.781-22.798c-3.902-3.905-10.228-3.905-14.132,0c-3.902,3.905-3.902,10.237,0,14.142l22.787,22.803
			c-9.76,12.312-16.243,27.326-18.137,43.727h-45.046c-5.519,0-9.993,4.477-9.993,10c0,5.523,4.474,10,9.993,10h45.046
			c1.894,16.401,8.377,31.415,18.137,43.727l-22.787,22.803c-3.902,3.905-3.902,10.236,0,14.142c3.82,3.823,10.331,3.804,14.133,0
			l22.781-22.798c12.305,9.769,27.309,16.274,43.701,18.168V391.833z M189.432,256c0-34.341,26.102-62.689,59.494-66.236
			c-6.886,7.361-11.193,17.165-11.464,27.956c-14.437,6.985-23.956,21.722-23.956,38.28c0,23.448,19.063,42.524,42.494,42.524
			c23.069,0,41.905-18.492,42.48-41.441c9.428-4.562,16.758-12.43,20.71-21.952c0.009,0.026,0.033,0.062,0.045,0.091
			c2.153,6.543,3.334,13.524,3.334,20.779c0.001,36.731-29.862,66.615-66.568,66.615S189.432,292.732,189.432,256z M390.012,346.225
			c-42.368,28.098-84.028,43.414-124.018,45.608v-49.791c16.392-1.894,31.395-8.4,43.701-18.168c0,0,22.745,22.762,22.781,22.798
			c3.709,3.712,10.322,3.811,14.133,0.001c3.902-3.905,3.902-10.237,0-14.142l-22.787-22.803
			c9.76-12.312,16.243-27.326,18.137-43.727h43.046c5.518,0,9.993-4.477,9.993-10s-4.474-10-9.993-10h-43.046
			c-1.894-16.401-8.377-31.415-18.137-43.727l22.787-22.803c3.902-3.905,3.902-10.237,0-14.142c-3.903-3.905-10.229-3.905-14.132,0
			l-22.781,22.798c-12.305-9.769-27.309-16.274-43.701-18.168v-49.791c39.99,2.195,81.65,17.51,124.018,45.608
			c17.999,26.709,27.501,57.862,27.501,90.225C417.514,288.364,408.011,319.516,390.012,346.225z M426.241,319.12
			c7.423-20.032,11.258-41.335,11.258-63.12c0-21.785-3.834-43.088-11.258-63.12c31.189,26.015,53.626,51.767,62.973,63.12
			C479.866,267.354,457.429,293.105,426.241,319.12z"/>
	</g>
</g>
<g>
	<g>
		<path d="M256.001,0c-5.519,0-9.993,4.477-9.993,10v54.9c0,5.523,4.474,10,9.993,10c5.519,0,9.993-4.477,9.993-10V10
			C265.994,4.477,261.52,0,256.001,0z"/>
	</g>
</g>
<g>
	<g>
		<path d="M446.892,64.974c-3.902-3.905-10.228-3.905-14.132,0l-35.864,35.889c-3.902,3.905-3.902,10.237,0,14.142
			c1.951,1.953,4.508,2.929,7.066,2.929c2.557,0,5.115-0.977,7.066-2.929l35.864-35.889
			C450.794,75.211,450.794,68.879,446.892,64.974z"/>
	</g>
</g>
<g>
	<g>
		<path d="M446.892,432.884l-35.864-35.889c-3.903-3.905-10.229-3.905-14.132,0c-3.902,3.905-3.902,10.237,0,14.142l35.864,35.889
			c1.952,1.953,4.508,2.929,7.066,2.929c2.558,0,5.115-0.977,7.066-2.929C450.794,443.121,450.794,436.789,446.892,432.884z"/>
	</g>
</g>
<g>
	<g>
		<path d="M256.001,437.1c-5.519,0-9.993,4.477-9.993,10V502c0,5.523,4.474,10,9.993,10c5.519,0,9.993-4.477,9.993-10v-54.9
			C265.994,441.577,261.52,437.1,256.001,437.1z"/>
	</g>
</g>
<g>
	<g>
		<path d="M115.106,396.995c-3.901-3.904-10.227-3.905-14.132,0L65.11,432.884c-3.902,3.905-3.902,10.237,0,14.142
			c1.952,1.953,4.508,2.929,7.066,2.929c2.557,0,5.115-0.977,7.066-2.929l35.864-35.889
			C119.008,407.232,119.008,400.9,115.106,396.995z"/>
	</g>
</g>
<g>
	<g>
		<path d="M115.106,100.863l-35.864-35.89c-3.903-3.905-10.229-3.905-14.132,0c-3.902,3.905-3.902,10.237,0,14.142l35.864,35.89
			c1.952,1.953,4.508,2.929,7.066,2.929s5.115-0.977,7.066-2.929C119.008,111.1,119.008,104.768,115.106,100.863z"/>
	</g>
</g>
<g>
</g>
<g>
</g>
<g>
</g>
<g>
</g>
<g>
</g>
<g>
</g>
<g>
</g>
<g>
</g>
<g>
</g>
<g>
</g>
<g>
</g>
<g>
</g>
<g>
</g>
<g>
</g>
<g>
</g>
</svg>
