<?xml version="1.0" encoding="iso-8859-1"?>
<!-- Generator: Adobe Illustrator 19.0.0, SVG Export Plug-In . SVG Version: 6.00 Build 0)  -->
<svg version="1.1" id="Capa_1" xmlns="http://www.w3.org/2000/svg" xmlns:xlink="http://www.w3.org/1999/xlink" x="0px" y="0px"
	 viewBox="0 0 512 512" style="enable-background:new 0 0 512 512;" xml:space="preserve">
<g>
	<g>
		<path d="M221.017,410.653H169.02c-5.523,0-9.999,4.491-9.999,10.03s4.477,10.031,9.999,10.031h51.997
			c5.523,0,9.999-4.491,9.999-10.031C231.017,415.144,226.54,410.653,221.017,410.653z"/>
	</g>
</g>
<g>
	<g>
		<path d="M86.036,410.653h-0.01c-5.523,0-9.994,4.491-9.994,10.03s4.482,10.031,10.004,10.031c5.522,0,9.999-4.491,9.999-10.031
			C96.035,415.144,91.559,410.653,86.036,410.653z"/>
	</g>
</g>
<g>
	<g>
		<path d="M127.033,410.653h-0.01c-5.523,0-9.994,4.491-9.994,10.03s4.482,10.031,10.004,10.031c5.522,0,9.999-4.491,9.999-10.031
			C137.033,415.144,132.556,410.653,127.033,410.653z"/>
	</g>
</g>
<g>
	<g>
		<path d="M426.014,410.653h-0.01c-5.523,0-9.994,4.491-9.994,10.03s4.482,10.031,10.004,10.031c5.522,0,9.999-4.491,9.999-10.031
			C436.013,415.144,431.536,410.653,426.014,410.653z"/>
	</g>
</g>
<g>
	<g>
		<path d="M385.016,410.653h-0.01c-5.523,0-9.994,4.491-9.994,10.03s4.482,10.031,10.004,10.031c5.522,0,9.999-4.491,9.999-10.031
			C395.016,415.144,390.539,410.653,385.016,410.653z"/>
	</g>
</g>
<g>
	<g>
		<path d="M344.019,410.653h-0.01c-5.523,0-9.994,4.491-9.994,10.03s4.482,10.031,10.004,10.031c5.522,0,9.999-4.491,9.999-10.031
			C354.018,415.144,349.542,410.653,344.019,410.653z"/>
	</g>
</g>
<g>
	<g>
		<path d="M303.022,410.653h-0.01c-5.523,0-9.994,4.491-9.994,10.03s4.482,10.031,10.004,10.031c5.522,0,9.999-4.491,9.999-10.031
			C313.021,415.144,308.544,410.653,303.022,410.653z"/>
	</g>
</g>
<g>
	<g>
		<path d="M262.025,410.653h-0.01c-5.523,0-9.994,4.491-9.994,10.03s4.482,10.031,10.004,10.031c5.522,0,9.999-4.491,9.999-10.031
			C272.024,415.144,267.547,410.653,262.025,410.653z"/>
	</g>
</g>
<g>
	<g>
		<path d="M112.368,370.532h-0.01c-5.523,0-9.994,4.491-9.994,10.03s4.482,10.031,10.004,10.031
			c5.522-0.001,9.999-4.492,9.999-10.031S117.89,370.532,112.368,370.532z"/>
	</g>
</g>
<g>
	<g>
		<path d="M153.366,370.532h-0.01c-5.523,0-9.994,4.491-9.994,10.03s4.482,10.031,10.004,10.031c5.522,0,9.999-4.492,9.999-10.031
			S158.888,370.532,153.366,370.532z"/>
	</g>
</g>
<g>
	<g>
		<path d="M194.362,370.531h-0.01c-5.523,0-9.994,4.491-9.994,10.03c0,5.54,4.482,10.031,10.004,10.031
			c5.523,0,9.999-4.491,9.999-10.031C204.361,375.022,199.884,370.531,194.362,370.531z"/>
	</g>
</g>
<g>
	<g>
		<path d="M235.36,370.531h-0.01c-5.523,0-9.994,4.491-9.994,10.03s4.482,10.031,10.004,10.031c5.522,0,9.999-4.491,9.999-10.031
			C245.359,375.023,240.882,370.531,235.36,370.531z"/>
	</g>
</g>
<g>
	<g>
		<path d="M276.357,370.531h-0.01c-5.523,0-9.994,4.491-9.994,10.03s4.482,10.031,10.004,10.031c5.522,0,9.999-4.491,9.999-10.031
			C286.356,375.023,281.88,370.531,276.357,370.531z"/>
	</g>
</g>
<g>
	<g>
		<path d="M317.354,370.531h-0.01c-5.523,0-9.994,4.491-9.994,10.03s4.482,10.031,10.004,10.031c5.522,0,9.999-4.491,9.999-10.031
			C327.354,375.023,322.877,370.531,317.354,370.531z"/>
	</g>
</g>
<g>
	<g>
		<path d="M358.352,370.531h-0.01c-5.523,0-9.994,4.491-9.994,10.03s4.482,10.031,10.004,10.031c5.523,0,9.999-4.491,9.999-10.031
			C368.351,375.023,363.874,370.531,358.352,370.531z"/>
	</g>
</g>
<g>
	<g>
		<path d="M400.349,370.531h-0.01c-5.523,0-9.994,4.491-9.994,10.03s4.482,10.031,10.004,10.031c5.522,0,9.999-4.491,9.999-10.031
			C410.348,375.023,405.871,370.531,400.349,370.531z"/>
	</g>
</g>
<g>
	<g>
		<path d="M511.17,457.852l-52.168-120.451V83.662c0-5.539-4.477-10.03-9.999-10.03h-39.061L282.054,1.293
			c-3.049-1.724-6.774-1.724-9.823,0L144.955,73.286c-0.27,0.103-0.533,0.22-0.792,0.345H63.028c-5.523,0-9.999,4.491-9.999,10.03
			V337.4L0.86,457.852c-1.11,2.563-0.828,44.118-0.828,44.118c0,5.539,4.477,10.03,9.999,10.03h491.968
			c5.523,0,9.999-4.491,9.999-10.03C511.998,501.97,512.079,459.949,511.17,457.852z M277.143,21.546l107.6,60.863L364.869,93.03
			l-87.726,46.881l-71.944-38.447c-0.002-0.001-0.004-0.003-0.006-0.004l-35.65-19.051L277.143,21.546z M313.797,223.586h29.998
			v21.565H210.491v-21.565h29.998c5.523,0,9.999-4.491,9.999-10.031c0-5.54-4.477-10.031-9.999-10.031h-29.998v-76.503
			c0,0,61.825,33.039,61.951,33.106c2.768,1.479,6.485,1.559,9.403,0l61.951-33.106v76.503h-29.998
			c-5.523,0-9.999,4.491-9.999,10.031C303.799,219.095,308.274,223.586,313.797,223.586z M158.482,99.228l32.011,17.106v0.039
			h-32.011V99.228z M148.482,192.993c5.52,0,9.999-4.504,9.999-10.031v-46.529h32.011v118.748c0,5.539,4.477,10.03,9.999,10.03
			h153.303c5.523,0,9.999-4.491,9.999-10.03V136.434h33.712v150.769H114.024V136.434h24.458v46.529
			C138.483,188.489,142.972,192.993,148.482,192.993z M73.027,93.692h65.456v22.681c0,0-34.395,0-34.458,0
			c-5.432,0-9.999,4.619-9.999,10.031v170.831c0,5.457,4.536,10.03,9.999,10.03c0,0,303.238,0,303.48,0
			c5.275,0,9.999-4.69,9.999-10.03c0,0,0-170.753,0-170.83c0-5.336-4.518-10.031-9.999-10.031h-43.711v-0.039l42.37-22.642h32.839
			v235.762H73.027V93.692z M69.586,349.516h372.858l44.308,102.302H25.278L69.586,349.516z M492,491.939H20.031v-20.061H492V491.939
			z"/>
	</g>
</g>
<g>
	<g>
		<path d="M277.144,203.525c-5.52,0-9.999,4.493-9.999,10.031c0,5.536,4.48,10.031,9.999,10.031s9.999-4.494,9.999-10.031
			C287.143,208.018,282.663,203.525,277.144,203.525z"/>
	</g>
</g>
<g>
	<g>
		<path d="M148.482,213.054c-5.51,0-9.999,4.493-9.999,10.03c0,5.527,4.489,10.031,9.999,10.031c5.52,0,9.999-4.504,9.999-10.031
			C158.481,217.547,154.001,213.054,148.482,213.054z"/>
	</g>
</g>
<g>
</g>
<g>
</g>
<g>
</g>
<g>
</g>
<g>
</g>
<g>
</g>
<g>
</g>
<g>
</g>
<g>
</g>
<g>
</g>
<g>
</g>
<g>
</g>
<g>
</g>
<g>
</g>
<g>
</g>
</svg>
