<?xml version="1.0" encoding="iso-8859-1"?>
<!-- Generator: Adobe Illustrator 19.0.0, SVG Export Plug-In . SVG Version: 6.00 Build 0)  -->
<svg version="1.1" id="Capa_1" xmlns="http://www.w3.org/2000/svg" xmlns:xlink="http://www.w3.org/1999/xlink" x="0px" y="0px"
	 viewBox="0 0 512 512" style="enable-background:new 0 0 512 512;" xml:space="preserve">
<g>
	<g>
		<path d="M482,0H30C13.458,0,0,13.458,0,30v440c0,16.542,13.458,30,30,30h10v2c0,5.522,4.478,10,10,10s10-4.478,10-10v-2h392v2
			c0,5.522,4.478,10,10,10c5.522,0,10-4.478,10-10v-2h10c16.542,0,30-13.458,30-30V30C512,13.458,498.542,0,482,0z M492,470
			c0,5.514-4.486,10-10,10H30c-5.514,0-10-4.486-10-10v-90h472V470z M492,360H20V260h472V360z M492,240H20V140h472V240z M492,120H20
			V30c0-5.514,4.486-10,10-10h452c5.514,0,10,4.486,10,10V120z"/>
	</g>
</g>
<g>
	<g>
		<path d="M410,40c-5.521,0-10,4.479-10,10c0,5.52,4.479,10,10,10c5.52,0,10-4.48,10-10C420,44.479,415.52,40,410,40z"/>
	</g>
</g>
<g>
	<g>
		<path d="M210,40c-5.521,0-10,4.479-10,10c0,5.52,4.479,10,10,10c5.52,0,10-4.48,10-10C220,44.479,215.52,40,210,40z"/>
	</g>
</g>
<g>
	<g>
		<path d="M450,40c-5.521,0-10,4.479-10,10c0,5.52,4.479,10,10,10c5.52,0,10-4.48,10-10C460,44.479,455.52,40,450,40z"/>
	</g>
</g>
<g>
	<g>
		<path d="M370,40c-5.521,0-10,4.479-10,10c0,5.52,4.479,10,10,10c5.52,0,10-4.48,10-10C380,44.479,375.52,40,370,40z"/>
	</g>
</g>
<g>
	<g>
		<path d="M290,40c-5.521,0-10,4.479-10,10c0,5.52,4.479,10,10,10c5.52,0,10-4.48,10-10C300,44.479,295.52,40,290,40z"/>
	</g>
</g>
<g>
	<g>
		<path d="M330,40c-5.521,0-10,4.479-10,10c0,5.52,4.479,10,10,10c5.52,0,10-4.48,10-10C340,44.479,335.52,40,330,40z"/>
	</g>
</g>
<g>
	<g>
		<path d="M250,40c-5.521,0-10,4.479-10,10c0,5.52,4.479,10,10,10c5.52,0,10-4.48,10-10C260,44.479,255.52,40,250,40z"/>
	</g>
</g>
<g>
	<g>
		<path d="M390,80c-5.521,0-10,4.479-10,10c0,5.52,4.479,10,10,10c5.52,0,10-4.48,10-10C400,84.479,395.52,80,390,80z"/>
	</g>
</g>
<g>
	<g>
		<path d="M350,80c-5.521,0-10,4.479-10,10c0,5.52,4.479,10,10,10c5.52,0,10-4.48,10-10C360,84.479,355.52,80,350,80z"/>
	</g>
</g>
<g>
	<g>
		<path d="M230,80c-5.521,0-10,4.479-10,10c0,5.52,4.479,10,10,10c5.52,0,10-4.48,10-10C240,84.479,235.52,80,230,80z"/>
	</g>
</g>
<g>
	<g>
		<path d="M270,80c-5.521,0-10,4.479-10,10c0,5.52,4.479,10,10,10c5.52,0,10-4.48,10-10C280,84.479,275.52,80,270,80z"/>
	</g>
</g>
<g>
	<g>
		<path d="M310,80c-5.521,0-10,4.479-10,10c0,5.52,4.479,10,10,10c5.52,0,10-4.48,10-10C320,84.479,315.52,80,310,80z"/>
	</g>
</g>
<g>
	<g>
		<path d="M430,80c-5.521,0-10,4.479-10,10c0,5.52,4.479,10,10,10c5.52,0,10-4.48,10-10C440,84.479,435.52,80,430,80z"/>
	</g>
</g>
<g>
	<g>
		<path d="M450,160c-5.521,0-10,4.479-10,10c0,5.52,4.479,10,10,10c5.52,0,10-4.48,10-10C460,164.479,455.52,160,450,160z"/>
	</g>
</g>
<g>
	<g>
		<path d="M210,160c-5.521,0-10,4.479-10,10c0,5.52,4.479,10,10,10c5.52,0,10-4.48,10-10C220,164.479,215.52,160,210,160z"/>
	</g>
</g>
<g>
	<g>
		<path d="M330,160c-5.521,0-10,4.479-10,10c0,5.52,4.479,10,10,10c5.52,0,10-4.48,10-10C340,164.479,335.52,160,330,160z"/>
	</g>
</g>
<g>
	<g>
		<path d="M290,160c-5.521,0-10,4.479-10,10c0,5.52,4.479,10,10,10c5.52,0,10-4.48,10-10C300,164.479,295.52,160,290,160z"/>
	</g>
</g>
<g>
	<g>
		<path d="M250,160c-5.521,0-10,4.479-10,10c0,5.52,4.479,10,10,10c5.52,0,10-4.48,10-10C260,164.479,255.52,160,250,160z"/>
	</g>
</g>
<g>
	<g>
		<path d="M370,160c-5.521,0-10,4.479-10,10c0,5.52,4.479,10,10,10c5.52,0,10-4.48,10-10C380,164.479,375.52,160,370,160z"/>
	</g>
</g>
<g>
	<g>
		<path d="M410,160c-5.521,0-10,4.479-10,10c0,5.52,4.479,10,10,10c5.52,0,10-4.48,10-10C420,164.479,415.52,160,410,160z"/>
	</g>
</g>
<g>
	<g>
		<path d="M310,200c-5.521,0-10,4.479-10,10c0,5.52,4.479,10,10,10c5.52,0,10-4.48,10-10C320,204.479,315.52,200,310,200z"/>
	</g>
</g>
<g>
	<g>
		<path d="M270,200c-5.521,0-10,4.479-10,10c0,5.52,4.479,10,10,10c5.52,0,10-4.48,10-10C280,204.479,275.52,200,270,200z"/>
	</g>
</g>
<g>
	<g>
		<path d="M350,200c-5.521,0-10,4.479-10,10c0,5.52,4.479,10,10,10c5.52,0,10-4.48,10-10C360,204.479,355.52,200,350,200z"/>
	</g>
</g>
<g>
	<g>
		<path d="M430,200c-5.521,0-10,4.479-10,10c0,5.52,4.479,10,10,10c5.52,0,10-4.48,10-10C440,204.479,435.52,200,430,200z"/>
	</g>
</g>
<g>
	<g>
		<path d="M230,200c-5.521,0-10,4.479-10,10c0,5.52,4.479,10,10,10c5.52,0,10-4.48,10-10C240,204.479,235.52,200,230,200z"/>
	</g>
</g>
<g>
	<g>
		<path d="M390,200c-5.521,0-10,4.479-10,10c0,5.52,4.479,10,10,10c5.52,0,10-4.48,10-10C400,204.479,395.52,200,390,200z"/>
	</g>
</g>
<g>
	<g>
		<path d="M250,280c-5.521,0-10,4.479-10,10c0,5.52,4.479,10,10,10c5.52,0,10-4.48,10-10C260,284.479,255.52,280,250,280z"/>
	</g>
</g>
<g>
	<g>
		<path d="M290,280c-5.521,0-10,4.479-10,10c0,5.52,4.479,10,10,10c5.52,0,10-4.48,10-10C300,284.479,295.52,280,290,280z"/>
	</g>
</g>
<g>
	<g>
		<path d="M330,280c-5.521,0-10,4.479-10,10c0,5.52,4.479,10,10,10c5.52,0,10-4.48,10-10C340,284.479,335.52,280,330,280z"/>
	</g>
</g>
<g>
	<g>
		<path d="M210,280c-5.521,0-10,4.479-10,10c0,5.52,4.479,10,10,10c5.52,0,10-4.48,10-10C220,284.479,215.52,280,210,280z"/>
	</g>
</g>
<g>
	<g>
		<path d="M230,320c-5.521,0-10,4.479-10,10c0,5.52,4.479,10,10,10c5.52,0,10-4.48,10-10C240,324.479,235.52,320,230,320z"/>
	</g>
</g>
<g>
	<g>
		<path d="M350,320c-5.521,0-10,4.479-10,10c0,5.52,4.479,10,10,10c5.52,0,10-4.48,10-10C360,324.479,355.52,320,350,320z"/>
	</g>
</g>
<g>
	<g>
		<path d="M270,320c-5.521,0-10,4.479-10,10c0,5.52,4.479,10,10,10c5.52,0,10-4.48,10-10C280,324.479,275.52,320,270,320z"/>
	</g>
</g>
<g>
	<g>
		<path d="M310,320c-5.521,0-10,4.479-10,10c0,5.52,4.479,10,10,10c5.52,0,10-4.48,10-10C320,324.479,315.52,320,310,320z"/>
	</g>
</g>
<g>
	<g>
		<path d="M450,400c-5.521,0-10,4.479-10,10c0,5.52,4.479,10,10,10c5.52,0,10-4.48,10-10C460,404.479,455.52,400,450,400z"/>
	</g>
</g>
<g>
	<g>
		<path d="M290,400c-5.521,0-10,4.479-10,10c0,5.52,4.479,10,10,10c5.52,0,10-4.48,10-10C300,404.479,295.52,400,290,400z"/>
	</g>
</g>
<g>
	<g>
		<path d="M250,400c-5.521,0-10,4.479-10,10c0,5.52,4.479,10,10,10c5.52,0,10-4.48,10-10C260,404.479,255.52,400,250,400z"/>
	</g>
</g>
<g>
	<g>
		<path d="M330,400c-5.521,0-10,4.479-10,10c0,5.52,4.479,10,10,10c5.52,0,10-4.48,10-10C340,404.479,335.52,400,330,400z"/>
	</g>
</g>
<g>
	<g>
		<path d="M210,400c-5.521,0-10,4.479-10,10c0,5.52,4.479,10,10,10c5.52,0,10-4.48,10-10C220,404.479,215.52,400,210,400z"/>
	</g>
</g>
<g>
	<g>
		<path d="M370,400c-5.521,0-10,4.479-10,10c0,5.52,4.479,10,10,10c5.52,0,10-4.48,10-10C380,404.479,375.52,400,370,400z"/>
	</g>
</g>
<g>
	<g>
		<path d="M410,400c-5.521,0-10,4.479-10,10c0,5.52,4.479,10,10,10c5.52,0,10-4.48,10-10C420,404.479,415.52,400,410,400z"/>
	</g>
</g>
<g>
	<g>
		<path d="M350,440c-5.521,0-10,4.479-10,10c0,5.52,4.479,10,10,10c5.52,0,10-4.48,10-10C360,444.479,355.52,440,350,440z"/>
	</g>
</g>
<g>
	<g>
		<path d="M390,440c-5.521,0-10,4.479-10,10c0,5.52,4.479,10,10,10c5.52,0,10-4.48,10-10C400,444.479,395.52,440,390,440z"/>
	</g>
</g>
<g>
	<g>
		<path d="M310,440c-5.521,0-10,4.479-10,10c0,5.52,4.479,10,10,10c5.52,0,10-4.48,10-10C320,444.479,315.52,440,310,440z"/>
	</g>
</g>
<g>
	<g>
		<path d="M430,440c-5.521,0-10,4.479-10,10c0,5.52,4.479,10,10,10c5.52,0,10-4.48,10-10C440,444.479,435.52,440,430,440z"/>
	</g>
</g>
<g>
	<g>
		<path d="M270,440c-5.521,0-10,4.479-10,10c0,5.52,4.479,10,10,10c5.52,0,10-4.48,10-10C280,444.479,275.52,440,270,440z"/>
	</g>
</g>
<g>
	<g>
		<path d="M230,440c-5.521,0-10,4.479-10,10c0,5.52,4.479,10,10,10c5.52,0,10-4.48,10-10C240,444.479,235.52,440,230,440z"/>
	</g>
</g>
<g>
	<g>
		<path d="M170,40H50c-5.522,0-10,4.478-10,10v40c0,5.522,4.478,10,10,10h120c5.522,0,10-4.478,10-10V50
			C180,44.478,175.522,40,170,40z M160,80H60V60h100V80z"/>
	</g>
</g>
<g>
	<g>
		<path d="M170,280H50c-5.522,0-10,4.478-10,10v40c0,5.522,4.478,10,10,10h120c5.522,0,10-4.478,10-10v-40
			C180,284.478,175.522,280,170,280z M160,320H60v-20h100V320z"/>
	</g>
</g>
<g>
	<g>
		<path d="M462,280h-92c-5.522,0-10,4.478-10,10c0,5.522,4.478,10,10,10h92c5.522,0,10-4.478,10-10C472,284.478,467.522,280,462,280
			z"/>
	</g>
</g>
<g>
	<g>
		<path d="M462,320h-72c-5.522,0-10,4.478-10,10c0,5.522,4.478,10,10,10h72c5.522,0,10-4.478,10-10C472,324.478,467.522,320,462,320
			z"/>
	</g>
</g>
<g>
	<g>
		<path d="M70,160c-16.542,0-30,13.458-30,30s13.458,30,30,30s30-13.458,30-30S86.542,160,70,160z M70,200c-5.514,0-10-4.486-10-10
			c0-5.514,4.486-10,10-10s10,4.486,10,10C80,195.514,75.514,200,70,200z"/>
	</g>
</g>
<g>
	<g>
		<path d="M150,160c-16.542,0-30,13.458-30,30s13.458,30,30,30s30-13.458,30-30S166.542,160,150,160z M150,200
			c-5.514,0-10-4.486-10-10c0-5.514,4.486-10,10-10c5.514,0,10,4.486,10,10C160,195.514,155.514,200,150,200z"/>
	</g>
</g>
<g>
	<g>
		<path d="M150,400c-13.036,0-24.152,8.361-28.28,20H98.28c-4.128-11.639-15.243-20-28.28-20c-16.542,0-30,13.458-30,30
			s13.458,30,30,30c13.036,0,24.152-8.361,28.28-20h23.44c4.128,11.639,15.243,20,28.28,20c16.542,0,30-13.458,30-30
			S166.542,400,150,400z M70,440c-5.514,0-10-4.486-10-10c0-5.514,4.486-10,10-10s10,4.486,10,10C80,435.514,75.514,440,70,440z
			 M150,440c-5.514,0-10-4.486-10-10c0-5.514,4.486-10,10-10c5.514,0,10,4.486,10,10C160,435.514,155.514,440,150,440z"/>
	</g>
</g>
<g>
</g>
<g>
</g>
<g>
</g>
<g>
</g>
<g>
</g>
<g>
</g>
<g>
</g>
<g>
</g>
<g>
</g>
<g>
</g>
<g>
</g>
<g>
</g>
<g>
</g>
<g>
</g>
<g>
</g>
</svg>
